#!OML:ASF X:\für Bonn\!DataBase\2005_08_11_Bastian_Final\c3d\Bastian.ASF
:FULLY-SPECIFIED
:DEGREES
66
root 3.72621 19.8223 -5.81189 1080.29 -1.10066 -3.55983
lowerback 16.8169 2.19146 -0.432872
upperback 7.0552 2.77818 -0.493306
thorax -1.89473 1.37653 -0.772967
lowerneck -10.3751 -6.73205 -9.75175
upperneck -5.27046 -7.88056 13.5062
head 1.09878 -3.6571 5.31586
rclavicle 1.78906e-014 8.74653e-015
rhumerus -39.7167 10.0371 -92.4971
rradius 45.4137
rwrist 7.71599
rhand -19.1976 16.6208
rfingers 7.12502
rthumb 7.11445 -13.2397
lclavicle 1.78906e-014 8.74653e-015
lhumerus -35.1692 5.40306 80.2286
lradius 59.9626
lwrist -172.57
lhand -17.2777 3.66515
lfingers 7.12502
lthumb 8.96739 33.4546
rfemur -30.9407 -6.65654 27.7864
rtibia 49.2698
rfoot -1.62654 4.88559
rtoes -37.4721
lfemur -25.5534 -4.47505 -12.2845
ltibia 31.6376
lfoot 13.1107 -7.69958
ltoes -36.3565
67
root 3.73631 19.5965 -5.52813 1080.25 -1.05688 -3.61958
lowerback 17.0003 2.16771 -0.323594
upperback 7.00283 2.76368 -0.436215
thorax -2.0441 1.3697 -0.780793
lowerneck -10.4084 -6.74679 -9.70285
upperneck -5.57395 -7.87623 13.3391
head 1.00287 -3.66065 5.26194
rclavicle 3.18055e-014 -1.74931e-014
rhumerus -40.0732 8.99657 -92.2984
rradius 44.6697
rwrist 7.33968
rhand -19.778 16.5508
rfingers 7.12502
rthumb 6.55416 -13.3278
lclavicle 3.18055e-014 -1.74931e-014
lhumerus -34.951 5.94447 79.9293
lradius 58.6499
lwrist -172.241
lhand -17.2814 3.24718
lfingers 7.12502
lthumb 8.96381 33.0368
rfemur -31.3581 -6.48793 27.843
rtibia 48.7933
rfoot -1.91124 5.44751
rtoes -38.8708
lfemur -25.7658 -4.37707 -12.1789
ltibia 31.5196
lfoot 13.702 -7.24889
ltoes -36.4235
68
root 3.74575 19.3599 -5.24244 1080.08 -0.99043 -3.68119
lowerback 17.24 2.13643 -0.200878
upperback 6.97028 2.74144 -0.390548
thorax -2.20071 1.35924 -0.808359
lowerneck -10.5162 -6.77143 -9.55493
upperneck -5.79277 -7.89771 13.1082
head 0.938758 -3.67537 5.16727
rclavicle 5.96354e-016 3.97569e-016
rhumerus -40.4408 7.87154 -92.0575
rradius 43.9028
rwrist 6.86223
rhand -20.3298 16.5351
rfingers 7.12502
rthumb 6.02138 -13.3593
lclavicle 5.96354e-016 3.97569e-016
lhumerus -34.8085 6.39746 79.6049
lradius 57.421
lwrist -171.848
lhand -17.3432 2.95415
lfingers 7.12502
lthumb 8.90416 32.7463
rfemur -31.6354 -6.2828 27.8639
rtibia 48.4669
rfoot -2.34704 6.05547
rtoes -40.1576
lfemur -25.8205 -4.04624 -12.195
ltibia 31.7039
lfoot 14.0826 -6.83455
ltoes -35.9528
69
root 3.75562 19.1059 -4.95513 1079.88 -0.872742 -3.71711
lowerback 17.4377 2.07209 -0.0945897
upperback 6.96915 2.67546 -0.330441
thorax -2.30399 1.32693 -0.800585
lowerneck -10.5726 -6.77295 -9.45643
upperneck -6.08827 -7.88156 12.8837
head 0.842148 -3.67308 5.08826
rclavicle -2.64384e-014 1.82882e-014
rhumerus -40.6937 6.6669 -91.6953
rradius 43.0383
rwrist 6.4374
rhand -20.8246 16.6755
rfingers 7.12502
rthumb 5.54374 -13.232
lclavicle -2.64384e-014 1.82882e-014
lhumerus -34.6525 6.93324 79.2848
lradius 56.1953
lwrist -171.371
lhand -17.5014 2.74142
lfingers 7.12502
lthumb 8.75155 32.54
rfemur -31.9193 -6.10722 27.858
rtibia 48.3379
rfoot -2.78149 6.63884
rtoes -40.8381
lfemur -25.8097 -3.57372 -12.3431
ltibia 32.2492
lfoot 14.1971 -6.69602
ltoes -34.9871
70
root 3.7653 18.8369 -4.66493 1079.59 -0.748846 -3.78079
lowerback 17.6387 1.99553 0.053977
upperback 6.97933 2.60094 -0.275029
thorax -2.39489 1.2911 -0.819377
lowerneck -10.5444 -6.7616 -9.26213
upperneck -6.41304 -7.86426 12.5857
head 0.715725 -3.6756 4.97453
rclavicle 1.15295e-014 -1.43125e-014
rhumerus -40.9448 5.60237 -91.362
rradius 42.22
rwrist 5.76497
rhand -21.3357 16.8731
rfingers 7.12502
rthumb 5.05023 -13.0467
lclavicle 1.15295e-014 -1.43125e-014
lhumerus -34.5467 7.33903 78.9851
lradius 55.0447
lwrist -170.831
lhand -17.6251 2.51764
lfingers 7.12502
lthumb 8.63214 32.3212
rfemur -32.16 -5.90634 27.87
rtibia 48.4233
rfoot -3.01564 7.15833
rtoes -40.0856
lfemur -25.7113 -2.87851 -12.5569
ltibia 33.2631
lfoot 13.8287 -6.88933
ltoes -32.7946
71
root 3.77472 18.551 -4.37291 1079.26 -0.600214 -3.78869
lowerback 17.8245 1.91825 0.158382
upperback 7.00476 2.51852 -0.237922
thorax -2.46293 1.25116 -0.829663
lowerneck -10.4304 -6.73897 -9.06767
upperneck -6.85575 -7.83059 12.3213
head 0.54168 -3.67359 4.87728
rclavicle 3.97569e-016 -1.27222e-014
rhumerus -41.2315 4.71577 -91.0627
rradius 41.6021
rwrist 4.85901
rhand -21.7849 16.9506
rfingers 7.12502
rthumb 4.61644 -12.9791
lclavicle 3.97569e-016 -1.27222e-014
lhumerus -34.388 7.70424 78.6893
lradius 53.8623
lwrist -170.297
lhand -17.8499 2.49036
lfingers 7.12502
lthumb 8.41517 32.3027
rfemur -32.2597 -5.6878 27.8102
rtibia 48.7495
rfoot -3.25736 7.61052
rtoes -38.1592
lfemur -25.6489 -1.96888 -12.9274
ltibia 34.826
lfoot 12.415 -7.62816
ltoes -31.5918
72
root 3.78432 18.25 -4.07769 1078.93 -0.426874 -3.82426
lowerback 17.959 1.80983 0.297671
upperback 7.03512 2.40202 -0.200441
thorax -2.49812 1.19508 -0.850261
lowerneck -10.4017 -6.70634 -8.81004
upperneck -7.20534 -7.79242 12.0201
head 0.403499 -3.66663 4.755
rclavicle -3.18055e-015 3.1408e-014
rhumerus -41.585 4.01686 -90.8008
rradius 41.3024
rwrist 3.84542
rhand -22.0678 16.8645
rfingers 7.12502
rthumb 4.34328 -13.0709
lclavicle -3.18055e-015 3.1408e-014
lhumerus -34.1786 8.06494 78.4414
lradius 52.688
lwrist -169.816
lhand -18.0388 2.52864
lfingers 7.12502
lthumb 8.23285 32.3482
rfemur -32.1602 -5.38913 27.7549
rtibia 49.3553
rfoot -3.72977 7.92946
rtoes -35.1198
lfemur -25.7207 -0.939868 -13.3251
ltibia 36.9912
lfoot 10.0451 -8.73679
ltoes -31.3199
